<svg width="16" height="16" viewBox="0 0 16 16" fill="none" xmlns="http://www.w3.org/2000/svg">
<path d="M11.3337 14V12.6667C11.3337 11.9594 11.0527 11.2811 10.5526 10.781C10.0525 10.281 9.37424 10 8.66699 10H3.33366C2.62641 10 1.94814 10.281 1.44804 10.781C0.947944 11.2811 0.666992 11.9594 0.666992 12.6667V14" stroke="#616161" stroke-width="1.33333" stroke-linecap="round" stroke-linejoin="round"/>
<path d="M5.99967 7.33333C7.47243 7.33333 8.66634 6.13943 8.66634 4.66667C8.66634 3.19391 7.47243 2 5.99967 2C4.52692 2 3.33301 3.19391 3.33301 4.66667C3.33301 6.13943 4.52692 7.33333 5.99967 7.33333Z" stroke="#616161" stroke-width="1.33333" stroke-linecap="round" stroke-linejoin="round"/>
<path d="M15.333 13.9993V12.6659C15.3326 12.0751 15.1359 11.5011 14.7739 11.0341C14.4119 10.5672 13.9051 10.2336 13.333 10.0859" stroke="#616161" stroke-width="1.33333" stroke-linecap="round" stroke-linejoin="round"/>
<path d="M10.667 2.08594C11.2406 2.2328 11.749 2.5664 12.1121 3.03414C12.4752 3.50188 12.6722 4.07716 12.6722 4.66927C12.6722 5.26138 12.4752 5.83666 12.1121 6.3044C11.749 6.77214 11.2406 7.10574 10.667 7.2526" stroke="#616161" stroke-width="1.33333" stroke-linecap="round" stroke-linejoin="round"/>
</svg>
